<?xml version="1.0" encoding="UTF-8" standalone="no"?><!-- Generator: Gravit.io --><svg xmlns="http://www.w3.org/2000/svg" xmlns:xlink="http://www.w3.org/1999/xlink" style="isolation:isolate" viewBox="1138.059 473.746 1049.333 690.241" width="1049.333pt" height="690.241pt"><defs><clipPath id="_clipPath_zI5bap2I2q5lyZRP0K4Xa3AMMv29IaXN"><rect x="1138.059" y="473.746" width="1049.333" height="690.241"/></clipPath></defs><g clip-path="url(#_clipPath_zI5bap2I2q5lyZRP0K4Xa3AMMv29IaXN)"><g><path d=" M 1229.566 543.61 L 1229.566 543.61 Q 1240.248 546.992 1246.301 554.915 L 1246.301 554.915 L 1246.301 554.915 Q 1252.354 562.837 1252.354 574.409 L 1252.354 574.409 L 1252.354 574.409 Q 1252.354 590.788 1239.625 599.6 L 1239.625 599.6 L 1239.625 599.6 Q 1226.896 608.412 1202.506 608.412 L 1202.506 608.412 L 1138.059 608.412 L 1138.059 483.792 L 1198.945 483.792 L 1198.945 483.792 Q 1221.733 483.792 1233.928 492.516 L 1233.928 492.516 L 1233.928 492.516 Q 1246.123 501.239 1246.123 516.193 L 1246.123 516.193 L 1246.123 516.193 Q 1246.123 525.273 1241.761 532.394 L 1241.761 532.394 L 1241.761 532.394 Q 1237.399 539.515 1229.566 543.61 L 1229.566 543.61 Z  M 1195.385 505.512 L 1166.722 505.512 L 1166.722 534.886 L 1195.385 534.886 L 1195.385 534.886 Q 1206.066 534.886 1211.585 531.148 L 1211.585 531.148 L 1211.585 531.148 Q 1217.104 527.409 1217.104 520.11 L 1217.104 520.11 L 1217.104 520.11 Q 1217.104 512.811 1211.585 509.161 L 1211.585 509.161 L 1211.585 509.161 Q 1206.066 505.512 1195.385 505.512 L 1195.385 505.512 Z  M 1200.369 586.693 L 1200.369 586.693 Q 1211.763 586.693 1217.549 582.954 L 1217.549 582.954 L 1217.549 582.954 Q 1223.335 579.216 1223.335 571.382 L 1223.335 571.382 L 1223.335 571.382 Q 1223.335 555.894 1200.369 555.894 L 1200.369 555.894 L 1166.722 555.894 L 1166.722 586.693 L 1200.369 586.693 Z  M 1310.925 511.209 L 1310.925 511.209 Q 1333.179 511.209 1345.107 521.801 L 1345.107 521.801 L 1345.107 521.801 Q 1357.035 532.394 1357.035 553.758 L 1357.035 553.758 L 1357.035 608.412 L 1331.043 608.412 L 1331.043 596.485 L 1331.043 596.485 Q 1323.209 609.837 1301.846 609.837 L 1301.846 609.837 L 1301.846 609.837 Q 1290.808 609.837 1282.708 606.098 L 1282.708 606.098 L 1282.708 606.098 Q 1274.607 602.359 1270.335 595.772 L 1270.335 595.772 L 1270.335 595.772 Q 1266.062 589.185 1266.062 580.818 L 1266.062 580.818 L 1266.062 580.818 Q 1266.062 567.466 1276.121 559.811 L 1276.121 559.811 L 1276.121 559.811 Q 1286.179 552.155 1307.187 552.155 L 1307.187 552.155 L 1329.262 552.155 L 1329.262 552.155 Q 1329.262 543.076 1323.743 538.18 L 1323.743 538.18 L 1323.743 538.18 Q 1318.225 533.284 1307.187 533.284 L 1307.187 533.284 L 1307.187 533.284 Q 1299.532 533.284 1292.143 535.688 L 1292.143 535.688 L 1292.143 535.688 Q 1284.755 538.091 1279.592 542.186 L 1279.592 542.186 L 1269.623 522.781 L 1269.623 522.781 Q 1277.456 517.262 1288.405 514.235 L 1288.405 514.235 L 1288.405 514.235 Q 1299.354 511.209 1310.925 511.209 L 1310.925 511.209 Z  M 1308.789 591.144 L 1308.789 591.144 Q 1315.91 591.144 1321.429 587.85 L 1321.429 587.85 L 1321.429 587.85 Q 1326.948 584.557 1329.262 578.148 L 1329.262 578.148 L 1329.262 568.356 L 1310.213 568.356 L 1310.213 568.356 Q 1293.122 568.356 1293.122 579.572 L 1293.122 579.572 L 1293.122 579.572 Q 1293.122 584.913 1297.306 588.028 L 1297.306 588.028 L 1297.306 588.028 Q 1301.49 591.144 1308.789 591.144 L 1308.789 591.144 Z  M 1410.622 587.049 L 1461.004 587.049 L 1461.004 608.412 L 1375.55 608.412 L 1375.55 591.678 L 1424.33 533.996 L 1376.796 533.996 L 1376.796 512.633 L 1459.402 512.633 L 1459.402 529.368 L 1410.622 587.049 Z  M 1523.848 609.837 L 1523.848 609.837 Q 1508.538 609.837 1496.343 603.517 L 1496.343 603.517 L 1496.343 603.517 Q 1484.148 597.197 1477.293 585.981 L 1477.293 585.981 L 1477.293 585.981 Q 1470.439 574.765 1470.439 560.523 L 1470.439 560.523 L 1470.439 560.523 Q 1470.439 546.28 1477.293 535.065 L 1477.293 535.065 L 1477.293 535.065 Q 1484.148 523.849 1496.343 517.529 L 1496.343 517.529 L 1496.343 517.529 Q 1508.538 511.209 1523.848 511.209 L 1523.848 511.209 L 1523.848 511.209 Q 1538.981 511.209 1550.285 517.529 L 1550.285 517.529 L 1550.285 517.529 Q 1561.59 523.849 1566.753 535.599 L 1566.753 535.599 L 1545.212 547.17 L 1545.212 547.17 Q 1537.734 533.996 1523.67 533.996 L 1523.67 533.996 L 1523.67 533.996 Q 1512.81 533.996 1505.689 541.117 L 1505.689 541.117 L 1505.689 541.117 Q 1498.568 548.239 1498.568 560.523 L 1498.568 560.523 L 1498.568 560.523 Q 1498.568 572.807 1505.689 579.928 L 1505.689 579.928 L 1505.689 579.928 Q 1512.81 587.049 1523.67 587.049 L 1523.67 587.049 L 1523.67 587.049 Q 1537.912 587.049 1545.212 573.875 L 1545.212 573.875 L 1566.753 585.625 L 1566.753 585.625 Q 1561.59 597.019 1550.285 603.428 L 1550.285 603.428 L 1550.285 603.428 Q 1538.981 609.837 1523.848 609.837 L 1523.848 609.837 Z  M 1621.408 511.209 L 1621.408 511.209 Q 1643.662 511.209 1655.59 521.801 L 1655.59 521.801 L 1655.59 521.801 Q 1667.517 532.394 1667.517 553.758 L 1667.517 553.758 L 1667.517 608.412 L 1641.525 608.412 L 1641.525 596.485 L 1641.525 596.485 Q 1633.692 609.837 1612.328 609.837 L 1612.328 609.837 L 1612.328 609.837 Q 1601.291 609.837 1593.19 606.098 L 1593.19 606.098 L 1593.19 606.098 Q 1585.09 602.359 1580.817 595.772 L 1580.817 595.772 L 1580.817 595.772 Q 1576.545 589.185 1576.545 580.818 L 1576.545 580.818 L 1576.545 580.818 Q 1576.545 567.466 1586.603 559.811 L 1586.603 559.811 L 1586.603 559.811 Q 1596.662 552.155 1617.669 552.155 L 1617.669 552.155 L 1639.745 552.155 L 1639.745 552.155 Q 1639.745 543.076 1634.226 538.18 L 1634.226 538.18 L 1634.226 538.18 Q 1628.707 533.284 1617.669 533.284 L 1617.669 533.284 L 1617.669 533.284 Q 1610.014 533.284 1602.626 535.688 L 1602.626 535.688 L 1602.626 535.688 Q 1595.238 538.091 1590.075 542.186 L 1590.075 542.186 L 1580.105 522.781 L 1580.105 522.781 Q 1587.938 517.262 1598.887 514.235 L 1598.887 514.235 L 1598.887 514.235 Q 1609.836 511.209 1621.408 511.209 L 1621.408 511.209 Z  M 1619.272 591.144 L 1619.272 591.144 Q 1626.393 591.144 1631.912 587.85 L 1631.912 587.85 L 1631.912 587.85 Q 1637.431 584.557 1639.745 578.148 L 1639.745 578.148 L 1639.745 568.356 L 1620.696 568.356 L 1620.696 568.356 Q 1603.605 568.356 1603.605 579.572 L 1603.605 579.572 L 1603.605 579.572 Q 1603.605 584.913 1607.789 588.028 L 1607.789 588.028 L 1607.789 588.028 Q 1611.972 591.144 1619.272 591.144 L 1619.272 591.144 Z  M 1692.62 608.412 L 1692.62 476.315 L 1720.392 476.315 L 1720.392 608.412 L 1692.62 608.412 Z " fill="rgb(0,0,0)"/><path d=" M 1438.26 635.853 L 1438.26 635.853 Q 1433.871 635.853 1431.592 638.3 L 1431.592 638.3 L 1431.592 638.3 Q 1429.313 640.748 1429.313 645.39 L 1429.313 645.39 L 1429.313 653.492 L 1444.083 653.492 L 1444.083 655.096 L 1429.313 655.096 L 1429.313 697.126 L 1427.625 697.126 L 1427.625 655.096 L 1419.185 655.096 L 1419.185 653.492 L 1427.625 653.492 L 1427.625 644.968 L 1427.625 644.968 Q 1427.625 640.073 1430.411 637.161 L 1430.411 637.161 L 1430.411 637.161 Q 1433.196 634.249 1438.175 634.249 L 1438.175 634.249 L 1438.175 634.249 Q 1440.623 634.249 1442.944 635.051 L 1442.944 635.051 L 1442.944 635.051 Q 1445.265 635.853 1446.7 637.372 L 1446.7 637.372 L 1445.518 638.553 L 1445.518 638.553 Q 1442.648 635.853 1438.26 635.853 L 1438.26 635.853 Z  M 1479.467 653.239 L 1479.467 653.239 Q 1487.063 653.239 1491.072 657.163 L 1491.072 657.163 L 1491.072 657.163 Q 1495.081 661.088 1495.081 668.515 L 1495.081 668.515 L 1495.081 697.126 L 1493.393 697.126 L 1493.393 687.842 L 1493.393 687.842 Q 1491.283 692.316 1487.021 694.848 L 1487.021 694.848 L 1487.021 694.848 Q 1482.759 697.38 1476.767 697.38 L 1476.767 697.38 L 1476.767 697.38 Q 1469.508 697.38 1465.415 694.046 L 1465.415 694.046 L 1465.415 694.046 Q 1461.322 690.712 1461.322 685.142 L 1461.322 685.142 L 1461.322 685.142 Q 1461.322 679.909 1464.993 676.66 L 1464.993 676.66 L 1464.993 676.66 Q 1468.664 673.41 1476.851 673.41 L 1476.851 673.41 L 1493.393 673.41 L 1493.393 668.599 L 1493.393 668.599 Q 1493.393 661.763 1489.891 658.303 L 1489.891 658.303 L 1489.891 658.303 Q 1486.388 654.842 1479.552 654.842 L 1479.552 654.842 L 1479.552 654.842 Q 1474.825 654.842 1470.732 656.488 L 1470.732 656.488 L 1470.732 656.488 Q 1466.639 658.134 1463.685 660.919 L 1463.685 660.919 L 1462.503 659.738 L 1462.503 659.738 Q 1465.626 656.699 1470.099 654.969 L 1470.099 654.969 L 1470.099 654.969 Q 1474.572 653.239 1479.467 653.239 L 1479.467 653.239 Z  M 1476.767 695.776 L 1476.767 695.776 Q 1488.92 695.776 1493.393 684.635 L 1493.393 684.635 L 1493.393 675.014 L 1476.767 675.014 L 1476.767 675.014 Q 1469.677 675.014 1466.343 677.715 L 1466.343 677.715 L 1466.343 677.715 Q 1463.01 680.415 1463.01 685.057 L 1463.01 685.057 L 1463.01 685.057 Q 1463.01 690.037 1466.639 692.906 L 1466.639 692.906 L 1466.639 692.906 Q 1470.268 695.776 1476.767 695.776 L 1476.767 695.776 Z  M 1527.174 697.126 L 1527.174 634.502 L 1528.862 634.502 L 1528.862 697.126 L 1527.174 697.126 Z  M 1577.75 697.38 L 1577.75 697.38 Q 1571.589 697.38 1566.694 694.552 L 1566.694 694.552 L 1566.694 694.552 Q 1561.799 691.725 1559.056 686.703 L 1559.056 686.703 L 1559.056 686.703 Q 1556.313 681.681 1556.313 675.267 L 1556.313 675.267 L 1556.313 675.267 Q 1556.313 668.853 1559.056 663.831 L 1559.056 663.831 L 1559.056 663.831 Q 1561.799 658.809 1566.694 656.024 L 1566.694 656.024 L 1566.694 656.024 Q 1571.589 653.239 1577.75 653.239 L 1577.75 653.239 L 1577.75 653.239 Q 1582.561 653.239 1586.654 655.053 L 1586.654 655.053 L 1586.654 655.053 Q 1590.747 656.868 1593.448 660.328 L 1593.448 660.328 L 1592.267 661.594 L 1592.267 661.594 Q 1589.819 658.218 1586.021 656.53 L 1586.021 656.53 L 1586.021 656.53 Q 1582.223 654.842 1577.75 654.842 L 1577.75 654.842 L 1577.75 654.842 Q 1572.095 654.842 1567.58 657.417 L 1567.58 657.417 L 1567.58 657.417 Q 1563.065 659.991 1560.533 664.675 L 1560.533 664.675 L 1560.533 664.675 Q 1558.001 669.359 1558.001 675.267 L 1558.001 675.267 L 1558.001 675.267 Q 1558.001 681.259 1560.533 685.901 L 1560.533 685.901 L 1560.533 685.901 Q 1563.065 690.543 1567.58 693.16 L 1567.58 693.16 L 1567.58 693.16 Q 1572.095 695.776 1577.75 695.776 L 1577.75 695.776 L 1577.75 695.776 Q 1582.223 695.776 1586.021 694.088 L 1586.021 694.088 L 1586.021 694.088 Q 1589.819 692.4 1592.267 689.024 L 1592.267 689.024 L 1593.448 690.29 L 1593.448 690.29 Q 1590.747 693.75 1586.654 695.565 L 1586.654 695.565 L 1586.654 695.565 Q 1582.561 697.38 1577.75 697.38 L 1577.75 697.38 Z  M 1635.838 697.38 L 1635.838 697.38 Q 1629.845 697.38 1624.992 694.552 L 1624.992 694.552 L 1624.992 694.552 Q 1620.139 691.725 1617.396 686.661 L 1617.396 686.661 L 1617.396 686.661 Q 1614.653 681.597 1614.653 675.267 L 1614.653 675.267 L 1614.653 675.267 Q 1614.653 668.937 1617.396 663.915 L 1617.396 663.915 L 1617.396 663.915 Q 1620.139 658.894 1624.992 656.066 L 1624.992 656.066 L 1624.992 656.066 Q 1629.845 653.239 1635.838 653.239 L 1635.838 653.239 L 1635.838 653.239 Q 1641.83 653.239 1646.683 656.066 L 1646.683 656.066 L 1646.683 656.066 Q 1651.536 658.894 1654.279 663.915 L 1654.279 663.915 L 1654.279 663.915 Q 1657.022 668.937 1657.022 675.267 L 1657.022 675.267 L 1657.022 675.267 Q 1657.022 681.597 1654.279 686.661 L 1654.279 686.661 L 1654.279 686.661 Q 1651.536 691.725 1646.683 694.552 L 1646.683 694.552 L 1646.683 694.552 Q 1641.83 697.38 1635.838 697.38 L 1635.838 697.38 Z  M 1635.838 695.776 L 1635.838 695.776 Q 1641.323 695.776 1645.797 693.16 L 1645.797 693.16 L 1645.797 693.16 Q 1650.27 690.543 1652.802 685.859 L 1652.802 685.859 L 1652.802 685.859 Q 1655.334 681.175 1655.334 675.267 L 1655.334 675.267 L 1655.334 675.267 Q 1655.334 669.359 1652.802 664.675 L 1652.802 664.675 L 1652.802 664.675 Q 1650.27 659.991 1645.797 657.417 L 1645.797 657.417 L 1645.797 657.417 Q 1641.323 654.842 1635.838 654.842 L 1635.838 654.842 L 1635.838 654.842 Q 1630.352 654.842 1625.878 657.417 L 1625.878 657.417 L 1625.878 657.417 Q 1621.405 659.991 1618.873 664.675 L 1618.873 664.675 L 1618.873 664.675 Q 1616.341 669.359 1616.341 675.267 L 1616.341 675.267 L 1616.341 675.267 Q 1616.341 681.175 1618.873 685.859 L 1618.873 685.859 L 1618.873 685.859 Q 1621.405 690.543 1625.878 693.16 L 1625.878 693.16 L 1625.878 693.16 Q 1630.352 695.776 1635.838 695.776 L 1635.838 695.776 Z  M 1704.475 653.239 L 1704.475 653.239 Q 1712.662 653.239 1717.304 657.923 L 1717.304 657.923 L 1717.304 657.923 Q 1721.946 662.607 1721.946 671.385 L 1721.946 671.385 L 1721.946 697.126 L 1720.258 697.126 L 1720.258 671.385 L 1720.258 671.385 Q 1720.258 663.367 1716.164 659.105 L 1716.164 659.105 L 1716.164 659.105 Q 1712.071 654.842 1704.559 654.842 L 1704.559 654.842 L 1704.559 654.842 Q 1696.035 654.842 1691.098 659.949 L 1691.098 659.949 L 1691.098 659.949 Q 1686.16 665.055 1686.16 673.41 L 1686.16 673.41 L 1686.16 697.126 L 1684.472 697.126 L 1684.472 653.492 L 1686.16 653.492 L 1686.16 665.139 L 1686.16 665.139 Q 1688.186 659.569 1692.912 656.404 L 1692.912 656.404 L 1692.912 656.404 Q 1697.639 653.239 1704.475 653.239 L 1704.475 653.239 Z  M 1138.264 697.126 L 1138.264 634.502 L 1139.952 634.502 L 1139.952 697.126 L 1138.264 697.126 Z  M 1172.551 697.126 L 1172.551 653.492 L 1174.239 653.492 L 1174.239 697.126 L 1172.551 697.126 Z  M 1173.395 641.423 L 1173.395 641.423 Q 1172.466 641.423 1171.833 640.748 L 1171.833 640.748 L 1171.833 640.748 Q 1171.2 640.073 1171.2 639.229 L 1171.2 639.229 L 1171.2 639.229 Q 1171.2 638.3 1171.833 637.667 L 1171.833 637.667 L 1171.833 637.667 Q 1172.466 637.034 1173.395 637.034 L 1173.395 637.034 L 1173.395 637.034 Q 1174.239 637.034 1174.914 637.667 L 1174.914 637.667 L 1174.914 637.667 Q 1175.589 638.3 1175.589 639.229 L 1175.589 639.229 L 1175.589 639.229 Q 1175.589 640.073 1174.914 640.748 L 1174.914 640.748 L 1174.914 640.748 Q 1174.239 641.423 1173.395 641.423 L 1173.395 641.423 Z  M 1242.876 653.492 L 1244.564 653.492 L 1244.564 693.244 L 1244.564 693.244 Q 1244.564 703.709 1239.585 708.731 L 1239.585 708.731 L 1239.585 708.731 Q 1234.605 713.753 1224.393 713.753 L 1224.393 713.753 L 1224.393 713.753 Q 1218.4 713.753 1213.294 711.812 L 1213.294 711.812 L 1213.294 711.812 Q 1208.188 709.871 1205.065 706.495 L 1205.065 706.495 L 1206.247 705.313 L 1206.247 705.313 Q 1209.623 708.605 1214.265 710.377 L 1214.265 710.377 L 1214.265 710.377 Q 1218.907 712.149 1224.393 712.149 L 1224.393 712.149 L 1224.393 712.149 Q 1233.845 712.149 1238.361 707.634 L 1238.361 707.634 L 1238.361 707.634 Q 1242.876 703.119 1242.876 693.497 L 1242.876 693.497 L 1242.876 682.525 L 1242.876 682.525 Q 1240.597 688.518 1235.322 692.105 L 1235.322 692.105 L 1235.322 692.105 Q 1230.047 695.692 1223.127 695.692 L 1223.127 695.692 L 1223.127 695.692 Q 1217.05 695.692 1212.155 692.949 L 1212.155 692.949 L 1212.155 692.949 Q 1207.26 690.206 1204.475 685.353 L 1204.475 685.353 L 1204.475 685.353 Q 1201.689 680.5 1201.689 674.423 L 1201.689 674.423 L 1201.689 674.423 Q 1201.689 668.346 1204.475 663.493 L 1204.475 663.493 L 1204.475 663.493 Q 1207.26 658.64 1212.155 655.94 L 1212.155 655.94 L 1212.155 655.94 Q 1217.05 653.239 1223.127 653.239 L 1223.127 653.239 L 1223.127 653.239 Q 1230.047 653.239 1235.322 656.784 L 1235.322 656.784 L 1235.322 656.784 Q 1240.597 660.328 1242.876 666.236 L 1242.876 666.236 L 1242.876 653.492 Z  M 1223.127 694.088 L 1223.127 694.088 Q 1228.781 694.088 1233.297 691.598 L 1233.297 691.598 L 1233.297 691.598 Q 1237.812 689.108 1240.344 684.593 L 1240.344 684.593 L 1240.344 684.593 Q 1242.876 680.078 1242.876 674.423 L 1242.876 674.423 L 1242.876 674.423 Q 1242.876 668.768 1240.344 664.295 L 1240.344 664.295 L 1240.344 664.295 Q 1237.812 659.822 1233.297 657.332 L 1233.297 657.332 L 1233.297 657.332 Q 1228.781 654.842 1223.127 654.842 L 1223.127 654.842 L 1223.127 654.842 Q 1217.472 654.842 1212.957 657.332 L 1212.957 657.332 L 1212.957 657.332 Q 1208.441 659.822 1205.909 664.295 L 1205.909 664.295 L 1205.909 664.295 Q 1203.377 668.768 1203.377 674.423 L 1203.377 674.423 L 1203.377 674.423 Q 1203.377 680.078 1205.909 684.593 L 1205.909 684.593 L 1205.909 684.593 Q 1208.441 689.108 1212.957 691.598 L 1212.957 691.598 L 1212.957 691.598 Q 1217.472 694.088 1223.127 694.088 L 1223.127 694.088 Z  M 1297.166 653.239 L 1297.166 653.239 Q 1305.352 653.239 1309.994 657.923 L 1309.994 657.923 L 1309.994 657.923 Q 1314.636 662.607 1314.636 671.385 L 1314.636 671.385 L 1314.636 697.126 L 1312.948 697.126 L 1312.948 671.385 L 1312.948 671.385 Q 1312.948 663.367 1308.855 659.105 L 1308.855 659.105 L 1308.855 659.105 Q 1304.762 654.842 1297.25 654.842 L 1297.25 654.842 L 1297.25 654.842 Q 1288.726 654.842 1283.788 659.949 L 1283.788 659.949 L 1283.788 659.949 Q 1278.851 665.055 1278.851 673.41 L 1278.851 673.41 L 1278.851 697.126 L 1277.163 697.126 L 1277.163 634.502 L 1278.851 634.502 L 1278.851 665.139 L 1278.851 665.139 Q 1280.877 659.569 1285.603 656.404 L 1285.603 656.404 L 1285.603 656.404 Q 1290.329 653.239 1297.166 653.239 L 1297.166 653.239 Z  M 1365.297 693.075 L 1366.478 694.257 L 1366.478 694.257 Q 1365.044 695.776 1362.723 696.578 L 1362.723 696.578 L 1362.723 696.578 Q 1360.402 697.38 1357.954 697.38 L 1357.954 697.38 L 1357.954 697.38 Q 1352.89 697.38 1350.147 694.468 L 1350.147 694.468 L 1350.147 694.468 Q 1347.404 691.556 1347.404 686.661 L 1347.404 686.661 L 1347.404 655.096 L 1338.964 655.096 L 1338.964 653.492 L 1347.404 653.492 L 1347.404 643.955 L 1349.092 643.955 L 1349.092 653.492 L 1363.862 653.492 L 1363.862 655.096 L 1349.092 655.096 L 1349.092 686.239 L 1349.092 686.239 Q 1349.092 690.881 1351.371 693.328 L 1351.371 693.328 L 1351.371 693.328 Q 1353.65 695.776 1358.038 695.776 L 1358.038 695.776 L 1358.038 695.776 Q 1362.427 695.776 1365.297 693.075 L 1365.297 693.075 Z " fill="rgb(0,0,0)"/><path d=" M 2101.395 696.586 L 2101.395 696.586 Q 2076.287 696.586 2056.67 682.933 L 2056.67 682.933 L 2056.67 682.933 Q 2037.054 669.28 2026.226 644.171 L 2026.226 644.171 L 2026.226 644.171 Q 2015.398 619.063 2015.398 585.166 L 2015.398 585.166 L 2015.398 585.166 Q 2015.398 551.269 2026.226 526.16 L 2026.226 526.16 L 2026.226 526.16 Q 2037.054 501.052 2056.67 487.399 L 2056.67 487.399 L 2056.67 487.399 Q 2076.287 473.746 2101.395 473.746 L 2101.395 473.746 L 2101.395 473.746 Q 2126.504 473.746 2146.12 487.399 L 2146.12 487.399 L 2146.12 487.399 Q 2165.736 501.052 2176.564 526.16 L 2176.564 526.16 L 2176.564 526.16 Q 2187.393 551.269 2187.393 585.166 L 2187.393 585.166 L 2187.393 585.166 Q 2187.393 619.063 2176.564 644.171 L 2176.564 644.171 L 2176.564 644.171 Q 2165.736 669.28 2146.12 682.933 L 2146.12 682.933 L 2146.12 682.933 Q 2126.504 696.586 2101.395 696.586 L 2101.395 696.586 Z  M 2101.395 681.834 L 2101.395 681.834 Q 2122.11 681.834 2137.96 670.378 L 2137.96 670.378 L 2137.96 670.378 Q 2153.81 658.923 2162.598 637.109 L 2162.598 637.109 L 2162.598 637.109 Q 2171.386 615.296 2171.386 585.166 L 2171.386 585.166 L 2171.386 585.166 Q 2171.386 555.035 2162.598 533.222 L 2162.598 533.222 L 2162.598 533.222 Q 2153.81 511.409 2137.96 499.953 L 2137.96 499.953 L 2137.96 499.953 Q 2122.11 488.497 2101.395 488.497 L 2101.395 488.497 L 2101.395 488.497 Q 2080.681 488.497 2064.831 499.953 L 2064.831 499.953 L 2064.831 499.953 Q 2048.981 511.409 2040.193 533.222 L 2040.193 533.222 L 2040.193 533.222 Q 2031.405 555.035 2031.405 585.166 L 2031.405 585.166 L 2031.405 585.166 Q 2031.405 615.296 2040.193 637.109 L 2040.193 637.109 L 2040.193 637.109 Q 2048.981 658.923 2064.831 670.378 L 2064.831 670.378 L 2064.831 670.378 Q 2080.681 681.834 2101.395 681.834 L 2101.395 681.834 Z  M 1844.345 571.042 L 1844.345 571.042 Q 1880.753 571.984 1899.741 588.775 L 1899.741 588.775 L 1899.741 588.775 Q 1918.73 605.567 1918.73 633.186 L 1918.73 633.186 L 1918.73 633.186 Q 1918.73 651.704 1909.942 665.984 L 1909.942 665.984 L 1909.942 665.984 Q 1901.154 680.265 1883.734 688.425 L 1883.734 688.425 L 1883.734 688.425 Q 1866.315 696.586 1841.834 696.586 L 1841.834 696.586 L 1841.834 696.586 Q 1817.981 696.586 1796.952 688.582 L 1796.952 688.582 L 1796.952 688.582 Q 1775.924 680.579 1764.311 667.083 L 1764.311 667.083 L 1772.472 654.842 L 1772.472 654.842 Q 1783.143 666.769 1801.503 674.302 L 1801.503 674.302 L 1801.503 674.302 Q 1819.864 681.834 1841.834 681.834 L 1841.834 681.834 L 1841.834 681.834 Q 1871.023 681.834 1886.716 668.809 L 1886.716 668.809 L 1886.716 668.809 Q 1902.409 655.784 1902.409 633.186 L 1902.409 633.186 L 1902.409 633.186 Q 1902.409 610.275 1886.402 597.406 L 1886.402 597.406 L 1886.402 597.406 Q 1870.395 584.538 1838.382 584.538 L 1838.382 584.538 L 1824.572 584.538 L 1824.572 572.925 L 1889.541 489.753 L 1772.472 489.753 L 1772.472 475.315 L 1910.255 475.315 L 1910.255 486.614 L 1844.345 571.042 Z  M 1966.75 696.272 L 1966.75 696.272 Q 1961.414 696.272 1957.491 692.349 L 1957.491 692.349 L 1957.491 692.349 Q 1953.568 688.425 1953.568 682.776 L 1953.568 682.776 L 1953.568 682.776 Q 1953.568 677.126 1957.491 673.36 L 1957.491 673.36 L 1957.491 673.36 Q 1961.414 669.594 1966.75 669.594 L 1966.75 669.594 L 1966.75 669.594 Q 1972.086 669.594 1976.009 673.36 L 1976.009 673.36 L 1976.009 673.36 Q 1979.932 677.126 1979.932 682.776 L 1979.932 682.776 L 1979.932 682.776 Q 1979.932 688.425 1976.009 692.349 L 1976.009 692.349 L 1976.009 692.349 Q 1972.086 696.272 1966.75 696.272 L 1966.75 696.272 Z " fill="rgb(0,0,0)"/><path d=" M 1662.828 749.337 L 1662.828 749.335 C 1635.909 749.367 1629.058 772.668 1626.747 805.027 L 1626.747 805.027 C 1623.277 830.931 1607.751 846.861 1602.591 848.878 C 1574.938 837.857 1554.001 825.091 1539.782 810.578 Q 1511.796 782.013 1500.54 756.389 L 1138.264 756.389 C 1192.848 855.911 1231.704 904.944 1232.629 879.039 Q 1233.554 853.135 1219.677 816.129 Q 1253.445 908.182 1297.39 916.046 C 1341.335 923.909 1358.451 927.184 1399.158 926.703 Q 1439.865 926.222 1421.361 879.039 Q 1465.769 973.932 1536.081 977.37 Q 1573.494 979.198 1591.523 975.863 C 1601.334 982.528 1581.223 1020.253 1531.132 1088.982 C 1521.283 1112.17 1617.528 1163.483 1662.828 1163.987 L 1662.828 1163.987 L 1662.828 1163.986 C 1662.828 1163.986 1662.828 1163.987 1662.828 1163.987 L 1662.828 1163.987 C 1708.128 1163.483 1804.373 1112.17 1794.524 1088.982 C 1744.434 1020.253 1724.322 982.528 1734.133 975.863 Q 1752.162 979.198 1789.575 977.37 Q 1859.887 973.932 1904.295 879.039 Q 1885.792 926.222 1926.498 926.703 C 1967.205 927.184 1984.321 923.909 2028.266 916.046 Q 2072.211 908.182 2105.979 816.129 Q 2092.102 853.135 2093.027 879.039 C 2093.952 904.944 2132.808 855.911 2187.392 756.389 L 1825.116 756.389 Q 1813.86 782.013 1785.874 810.578 C 1771.655 825.091 1750.719 837.857 1723.065 848.878 C 1717.905 846.861 1702.379 830.931 1698.91 805.027 L 1698.91 805.027 C 1696.598 772.668 1689.747 749.367 1662.828 749.335 C 1662.828 749.336 1662.828 749.336 1662.828 749.337 Z  M 1138.267 756.388 L 1138.267 756.388 L 1138.267 756.388 L 1138.264 756.388 L 1138.264 756.388 C 1138.264 756.388 1138.264 756.388 1138.264 756.389 L 1138.264 756.389 L 1138.267 756.388 L 1138.267 756.388 L 1138.267 756.388 L 1138.267 756.388 L 1138.267 756.388 L 1138.267 756.388 Z  M 2187.389 756.388 L 2187.389 756.388 L 2187.389 756.388 L 2187.393 756.388 L 2187.393 756.388 C 2187.392 756.388 2187.392 756.388 2187.392 756.389 L 2187.392 756.389 L 2187.389 756.388 L 2187.389 756.388 L 2187.389 756.388 L 2187.389 756.388 L 2187.389 756.388 L 2187.389 756.388 Z " fill-rule="evenodd" fill="rgb(0,0,0)"/></g></g></svg>